<svg width="157" height="45" fill="none" xmlns="http://www.w3.org/2000/svg"><path fill="#1A1A1A" d="M0 0h157v45H0z"/><path d="M19 17v-2h1.6v2h1.2c1.053 0 1.947.373 2.68 1.12.747.733 1.12 1.627 1.12 2.68v4.4a3.68 3.68 0 01-1.12 2.7c-.733.733-1.627 1.1-2.68 1.1h-1.2v2H19v-2h-1.2c-1.053 0-1.953-.367-2.7-1.1-.733-.747-1.1-1.647-1.1-2.7v-4.4c0-1.053.367-1.947 1.1-2.68A3.68 3.68 0 0117.8 17H19zm0 10.5v-9h-1.2c-.613 0-1.133.213-1.56.64-.427.427-.64.947-.64 1.56v4.6c0 .613.213 1.133.64 1.56.427.427.947.64 1.56.64H19zm1.6-9v9h1.2a2.1 2.1 0 001.54-.64c.44-.427.66-.947.66-1.56v-4.6a2.09 2.09 0 00-.66-1.56 2.1 2.1 0 00-1.54-.64h-1.2zm7.194 8.82v-8.64c0-1.053.366-1.947 1.1-2.68a3.68 3.68 0 012.7-1.12c1.053 0 1.946.373 2.68 1.12.746.733 1.12 1.627 1.12 2.68v8.64c0 1.053-.374 1.953-1.12 2.7-.734.733-1.627 1.1-2.68 1.1-1.067 0-1.967-.367-2.7-1.1-.734-.733-1.1-1.633-1.1-2.7zm1.6.1c0 .613.213 1.133.64 1.56.426.427.946.64 1.56.64a2.1 2.1 0 001.54-.64c.44-.427.66-.947.66-1.56v-8.84c0-.6-.22-1.113-.66-1.54-.427-.44-.94-.66-1.54-.66a2.09 2.09 0 00-1.56.66 2.1 2.1 0 00-.64 1.54v8.84zm7.8-10.92V15h7v1.5h-2.72V31h-1.6V16.5h-2.68zm8.803 10.82v-8.64c0-1.053.367-1.947 1.1-2.68a3.68 3.68 0 012.7-1.12c1.053 0 1.947.373 2.68 1.12.747.733 1.12 1.627 1.12 2.68v8.64a3.68 3.68 0 01-1.12 2.7c-.733.733-1.627 1.1-2.68 1.1-1.067 0-1.967-.367-2.7-1.1-.733-.733-1.1-1.633-1.1-2.7zm1.6.1c0 .613.213 1.133.64 1.56.426.427.947.64 1.56.64a2.1 2.1 0 001.54-.64c.44-.427.66-.947.66-1.56v-8.84c0-.6-.22-1.113-.66-1.54-.427-.44-.94-.66-1.54-.66a2.09 2.09 0 00-1.56.66 2.1 2.1 0 00-.64 1.54v8.84zm10 0c0 .613.213 1.133.64 1.56.426.427.947.64 1.56.64a2.1 2.1 0 001.54-.64c.44-.427.66-.947.66-1.56v-.82h1.6v.72a3.68 3.68 0 01-1.12 2.7c-.733.733-1.627 1.1-2.68 1.1-1.067 0-1.967-.367-2.7-1.1-.733-.733-1.1-1.633-1.1-2.7v-8.64c0-1.053.367-1.947 1.1-2.68a3.68 3.68 0 012.7-1.12c1.053 0 1.947.373 2.68 1.12.747.733 1.12 1.627 1.12 2.68v.72h-1.6v-.82c0-.6-.22-1.113-.66-1.54-.427-.44-.94-.66-1.54-.66a2.09 2.09 0 00-1.56.66 2.1 2.1 0 00-.64 1.54v8.84zm7.8-10.92V15h7v1.5h-2.72V31h-1.6V16.5h-2.68zM73.84 15h1.64l2.16 8.52 2.2-8.52h1.64l-3.66 13.98c-.16.573-.5 1.053-1.02 1.44-.507.387-1.053.58-1.64.58h-1.28v-1.5h1.28c.24 0 .467-.08.68-.24.213-.173.353-.38.42-.62l.54-1.98L73.84 15zm8.012 14.5h1.3l3-14.5h4.6v14.5h1.5v4h-1.6V31h-7.2v2.5h-1.6v-4zm5.62-13l-2.7 13h4.38v-13h-1.68zm8.582-1.5v11.8l4.9-11.8h1.6v16h-1.6V19.2l-4.9 11.8h-1.6V15h1.6zm16.508 16h-1.6v-4.74h-2.2a2.12 2.12 0 00-1.56.64c-.427.427-.64.947-.64 1.56V31h-1.6v-2.44c0-.613.133-1.187.4-1.72.28-.533.653-.973 1.12-1.32-1.014-.773-1.52-1.793-1.52-3.06V18.8c0-1.053.366-1.947 1.1-2.68a3.678 3.678 0 012.7-1.12h3.8v16zm-1.6-6.24V16.5h-2.2c-.614 0-1.134.22-1.56.66-.427.427-.64.94-.64 1.54v3.86c0 .613.213 1.133.64 1.56.426.427.946.64 1.56.64h2.2zm15.5 6.24l-4.9-11.8V31h-1.6V15h1.6l4.9 11.8V15h1.6v16h-1.6zm4.82-9.34a2.697 2.697 0 01-.82-1.98c0-.773.273-1.433.82-1.98a2.696 2.696 0 011.98-.82c.773 0 1.433.273 1.98.82a2.7 2.7 0 01.82 1.98 2.7 2.7 0 01-.82 1.98 2.699 2.699 0 01-1.98.82 2.696 2.696 0 01-1.98-.82zm.78-1.88c0 .333.113.62.34.86.24.227.526.34.86.34.333 0 .613-.113.84-.34.24-.24.36-.527.36-.86v-.2c0-.333-.12-.613-.36-.84a1.11 1.11 0 00-.84-.36c-.334 0-.62.12-.86.36a1.14 1.14 0 00-.34.84v.2zM140.558 31V16.5h-2.5V15h4.1v16h-1.6z" fill="#fff"/></svg>